<?xml version="1.0" encoding="utf-8"?>
<!-- Generator: Adobe Illustrator 16.0.0, SVG Export Plug-In . SVG Version: 6.00 Build 0)  -->
<!DOCTYPE svg PUBLIC "-//W3C//DTD SVG 1.1//EN" "http://www.w3.org/Graphics/SVG/1.1/DTD/svg11.dtd">
<svg version="1.1" id="Layer_1" xmlns="http://www.w3.org/2000/svg" xmlns:xlink="http://www.w3.org/1999/xlink" x="0px" y="0px"
	 width="50px" height="50px" viewBox="0 0 50 50" enable-background="new 0 0 50 50" xml:space="preserve">
<polygon fill="#0BAAE2" points="684,-320.667 684,-223.667 522.05,-130.167 438.05,-178.667 "/>
<polygon fill="#40B9EB" points="438.05,105.334 522.05,56.834 522.05,-130.167 438.05,-178.667 "/>
<polygon fill="#0098CC" points="929.95,-178.667 845.95,-130.167 684,-223.667 684,-320.667 "/>
<polygon fill="#0086B3" points="845.95,56.834 929.95,105.334 929.95,-178.667 845.95,-130.167 "/>
<polygon fill="#007399" points="929.95,105.334 684,247.334 684,150.334 753.24,110.354 794.59,120.303 804.04,81.033 
	845.95,56.834 "/>
<polygon fill="#036180" points="522.05,56.834 438.05,105.334 684,247.334 684,150.334 "/>
<linearGradient id="SVGID_1_" gradientUnits="userSpaceOnUse" x1="438.0498" y1="-36.666" x2="929.9502" y2="-36.666">
	<stop  offset="0" style="stop-color:#EB008B;stop-opacity:0.5"/>
	<stop  offset="1" style="stop-color:#000000;stop-opacity:0"/>
</linearGradient>
<path fill="url(#SVGID_1_)" d="M684-320.667l-245.95,142v284l245.95,142l245.95-142v-284L684-320.667z M804.04,81.033l-9.45,39.27
	l-41.35-9.949L684,150.334l-161.95-93.5v-187l161.95-93.5l161.95,93.5v187L804.04,81.033z"/>
<linearGradient id="SVGID_2_" gradientUnits="userSpaceOnUse" x1="806.9756" y1="176.334" x2="561.0239" y2="-249.6668">
	<stop  offset="0" style="stop-color:#00A69C;stop-opacity:0.5"/>
	<stop  offset="1" style="stop-color:#000000;stop-opacity:0"/>
</linearGradient>
<path fill="url(#SVGID_2_)" d="M684-320.667l-245.95,142v284l245.95,142l245.95-142v-284L684-320.667z M804.04,81.033l-9.45,39.27
	l-41.35-9.949L684,150.334l-161.95-93.5v-187l161.95-93.5l161.95,93.5v187L804.04,81.033z"/>
<g>
	<path fill="none" stroke="#FFFFFF" stroke-width="2" stroke-miterlimit="10" d="M692.659-315.667c-4.763-2.75-12.558-2.75-17.32,0
		l-228.629,132c-4.764,2.75-8.66,9.5-8.66,15v264c0,5.5,3.896,12.25,8.66,15l228.629,132c4.763,2.75,12.558,2.75,17.32,0
		l228.631-132c4.763-2.75,8.66-9.5,8.66-15v-264c0-5.5-3.897-12.25-8.66-15L692.659-315.667z M812.7,76.033
		c-4.763,2.75-9.713,9.375-11,14.723l-4.771,19.824c-1.287,5.348-6.715,8.67-12.063,7.383l-21.904-5.27
		c-5.348-1.287-13.62-0.09-18.383,2.66l-51.92,29.98c-4.763,2.75-12.558,2.75-17.32,0l-144.629-83.5c-4.764-2.75-8.66-9.5-8.66-15
		v-167c0-5.5,3.896-12.25,8.66-15l144.629-83.5c4.763-2.75,12.558-2.75,17.32,0l144.631,83.5c4.763,2.75,8.66,9.5,8.66,15v167
		c0,5.5-3.897,12.25-8.66,15L812.7,76.033z"/>
</g>
<rect fill="none" width="50" height="50"/>
<g>
	<polygon fill="#0BAAE2" points="25,5.808 25,12.363 14.056,18.682 8.379,15.404 	"/>
	<polygon fill="#40B9EB" points="8.379,34.596 14.056,31.318 14.056,18.682 8.379,15.404 	"/>
	<polygon fill="#0098CC" points="41.621,15.404 35.945,18.682 25,12.363 25,5.808 	"/>
	<polygon fill="#0086B3" points="35.945,31.318 41.621,34.596 41.621,15.404 35.945,18.682 	"/>
	<polygon fill="#007399" points="41.621,34.596 25,44.192 25,37.637 29.68,34.935 32.473,35.607 33.111,32.954 35.945,31.318 	"/>
	<polygon fill="#036180" points="14.056,31.318 8.379,34.596 25,44.192 25,37.637 	"/>
	<linearGradient id="SVGID_3_" gradientUnits="userSpaceOnUse" x1="8.3794" y1="25" x2="41.6211" y2="25">
		<stop  offset="0" style="stop-color:#EB008B;stop-opacity:0.5"/>
		<stop  offset="1" style="stop-color:#000000;stop-opacity:0"/>
	</linearGradient>
	<path fill="url(#SVGID_3_)" d="M25,5.808L8.379,15.404v19.192L25,44.192l16.621-9.597V15.404L25,5.808z M33.111,32.954
		l-0.639,2.653l-2.793-0.673L25,37.637l-10.944-6.318V18.682L25,12.363l10.945,6.319v12.637L33.111,32.954z"/>
	<linearGradient id="SVGID_4_" gradientUnits="userSpaceOnUse" x1="33.3105" y1="39.3945" x2="16.6895" y2="10.606">
		<stop  offset="0" style="stop-color:#00A69C;stop-opacity:0.5"/>
		<stop  offset="1" style="stop-color:#000000;stop-opacity:0"/>
	</linearGradient>
	<path fill="url(#SVGID_4_)" d="M25,5.808L8.379,15.404v19.192L25,44.192l16.621-9.597V15.404L25,5.808z M33.111,32.954
		l-0.639,2.653l-2.793-0.673L25,37.637l-10.944-6.318V18.682L25,12.363l10.945,6.319v12.637L33.111,32.954z"/>
	<path fill="none" stroke="#FFFFFF" stroke-width="0.2" stroke-miterlimit="10" d="M25,5.808L8.379,15.404v19.192L25,44.192
		l16.621-9.597V15.404L25,5.808z M33.111,32.954l-0.639,2.653l-2.793-0.673L25,37.637l-10.944-6.318V18.682L25,12.363l10.945,6.319
		v12.637L33.111,32.954z"/>
</g>
</svg>
