<?xml version="1.0" encoding="utf-8"?>
<!-- Generator: Adobe Illustrator 16.0.0, SVG Export Plug-In . SVG Version: 6.00 Build 0)  -->
<!DOCTYPE svg PUBLIC "-//W3C//DTD SVG 1.1//EN" "http://www.w3.org/Graphics/SVG/1.1/DTD/svg11.dtd">
<svg version="1.1" id="Layer_1" xmlns="http://www.w3.org/2000/svg" xmlns:xlink="http://www.w3.org/1999/xlink" x="0px" y="0px"
	 width="300px" height="300px" viewBox="0 0 300 300" enable-background="new 0 0 300 300" xml:space="preserve">
<g opacity="0.5">
	<path fill="#FFFFFF" d="M72.423,23.35L23.35,72.423c5.983-9.758,13.202-18.972,21.652-27.422S62.666,29.332,72.423,23.35z"/>
	<path fill="#FFFFFF" d="M95.093,11.994L11.994,95.093c1.357-3.422,2.85-6.809,4.483-10.14l68.476-68.476
		C88.284,14.844,91.67,13.352,95.093,11.994z"/>
	<path fill="#FFFFFF" d="M111.958,6.443L6.443,111.958c0.707-2.687,1.492-5.353,2.354-8.012l95.148-95.148
		C106.604,7.936,109.271,7.15,111.958,6.443z"/>
	<path fill="#FFFFFF" d="M126.312,3.402L3.402,126.312c0.368-2.32,0.799-4.632,1.28-6.937L119.375,4.683
		C121.681,4.201,123.992,3.771,126.312,3.402z"/>
	<path fill="#FFFFFF" d="M138.602,1.946L1.946,138.602c0.141-1.909,0.325-3.818,0.551-5.728L132.874,2.497
		C134.783,2.271,136.692,2.087,138.602,1.946z"/>
	<path fill="#FFFFFF" d="M150.354,1.508L1.508,150.354c0-1.923,0.028-3.833,0.099-5.756L144.598,1.606
		C146.521,1.536,148.43,1.508,150.354,1.508z"/>
	<path fill="#FFFFFF" d="M161.243,1.932L1.932,161.243c-0.142-1.782-0.241-3.564-0.304-5.353L155.891,1.628
		C157.679,1.691,159.461,1.791,161.243,1.932z"/>
	<path fill="#FFFFFF" d="M171.432,3.057L3.056,171.433c-0.248-1.662-0.459-3.345-0.644-5.014L166.419,2.413
		C168.088,2.597,169.771,2.809,171.432,3.057z"/>
	<path fill="#FFFFFF" d="M181.431,4.852L4.852,181.431c-0.361-1.704-0.7-3.415-1.011-5.126L176.305,3.841
		C178.016,4.152,179.727,4.491,181.431,4.852z"/>
	<path fill="#FFFFFF" d="M190.488,7.108L7.108,190.488c-0.424-1.484-0.813-2.976-1.181-4.476L186.013,5.927
		C187.512,6.295,189.004,6.684,190.488,7.108z"/>
	<path fill="#FFFFFF" d="M199.094,9.816L9.816,199.094c-0.481-1.413-0.961-2.828-1.407-4.249L194.845,8.409
		C196.266,8.855,197.68,9.335,199.094,9.816z"/>
	<path fill="#FFFFFF" d="M207.269,12.955L12.956,207.269c-0.559-1.336-1.103-2.688-1.612-4.045l191.88-191.88
		C204.582,11.853,205.932,12.397,207.269,12.955z"/>
	<path fill="#FFFFFF" d="M214.735,16.322L16.322,214.735c-0.573-1.167-1.118-2.348-1.655-3.521L211.215,14.667
		C212.388,15.204,213.568,15.749,214.735,16.322z"/>
	<path fill="#FFFFFF" d="M222.182,20.189L20.189,222.182c-0.679-1.216-1.336-2.439-1.973-3.685L218.497,18.216
		C219.742,18.853,220.966,19.51,222.182,20.189z"/>
	<path fill="#FFFFFF" d="M229.27,24.41L24.41,229.27c-0.73-1.159-1.45-2.319-2.16-3.5L225.77,22.25
		C226.95,22.96,228.11,23.68,229.27,24.41z"/>
	<path fill="#FFFFFF" d="M236.05,28.95l-207.1,207.1c-0.78-1.109-1.56-2.22-2.3-3.35L232.7,26.65
		C233.83,27.4,234.94,28.17,236.05,28.95z"/>
	<path fill="#FFFFFF" d="M242.489,33.822L33.822,242.489c-0.849-1.046-1.669-2.106-2.475-3.182l207.96-207.96
		C240.383,32.153,241.443,32.974,242.489,33.822z"/>
	<path fill="#FFFFFF" d="M248.635,38.991L38.991,248.635c-0.891-1.004-1.761-2.016-2.624-3.034L245.601,36.368
		C246.619,37.231,247.631,38.101,248.635,38.991z"/>
	<path fill="#FFFFFF" d="M235.539,271.403l35.871-35.872c-4.822,6.831-10.295,13.351-16.412,19.467
		C248.882,261.115,242.369,266.581,235.539,271.403z"/>
	<path fill="#FFFFFF" d="M285.701,210.395c-1.542,3.45-3.218,6.865-5.028,10.218l-60.062,60.062
		c-3.352,1.81-6.767,3.485-10.217,5.027L285.701,210.395z"/>
	<path fill="#FFFFFF" d="M292.319,192.462c-0.842,2.836-1.775,5.664-2.793,8.45l-88.614,88.614c-2.786,1.019-5.614,1.951-8.45,2.793
		L292.319,192.462z"/>
	<path fill="#FFFFFF" d="M295.926,177.542c-0.445,2.41-0.962,4.809-1.541,7.198L184.74,294.384c-2.39,0.58-4.787,1.097-7.198,1.542
		L295.926,177.542z"/>
	<path fill="#FFFFFF" d="M297.8,164.354c-0.212,2.149-0.46,4.292-0.764,6.42L170.775,297.036c-2.129,0.304-4.271,0.552-6.421,0.764
		L297.8,164.354z"/>
	<path fill="#FFFFFF" d="M298.464,152.743c-0.027,1.825-0.092,3.656-0.198,5.488L158.23,298.267
		c-1.831,0.106-3.662,0.17-5.487,0.197L298.464,152.743z"/>
	<path fill="#FFFFFF" d="M298.259,141.635c0.106,1.817,0.17,3.635,0.198,5.459L147.094,298.457
		c-1.824-0.028-3.642-0.092-5.459-0.198L298.259,141.635z"/>
	<path fill="#FFFFFF" d="M297.312,131.269c0.212,1.697,0.403,3.401,0.552,5.105l-161.489,161.49
		c-1.704-0.148-3.409-0.34-5.105-0.552L297.312,131.269z"/>
	<path fill="#FFFFFF" d="M295.749,121.518c0.311,1.598,0.594,3.196,0.849,4.808L126.326,296.598
		c-1.612-0.255-3.211-0.538-4.809-0.849L295.749,121.518z"/>
	<path fill="#FFFFFF" d="M293.741,112.679c0.367,1.387,0.707,2.772,1.018,4.172L116.851,294.759c-1.4-0.312-2.786-0.65-4.172-1.019
		L293.741,112.679z"/>
	<path fill="#FFFFFF" d="M291.195,103.911c0.467,1.442,0.905,2.884,1.329,4.328L108.238,292.524
		c-1.442-0.425-2.885-0.862-4.328-1.329L291.195,103.911z"/>
	<path fill="#FFFFFF" d="M288.204,95.588c0.53,1.365,1.053,2.737,1.541,4.116L99.704,289.745c-1.379-0.488-2.751-1.011-4.116-1.541
		L288.204,95.588z"/>
	<path fill="#FFFFFF" d="M284.817,87.661c0.601,1.294,1.174,2.602,1.739,3.917L91.579,286.557c-1.315-0.566-2.623-1.139-3.917-1.739
		L284.817,87.661z"/>
	<path fill="#FFFFFF" d="M280.893,79.805c0.721,1.33,1.421,2.681,2.086,4.038L83.843,282.979c-1.357-0.665-2.708-1.365-4.038-2.086
		L280.893,79.805z"/>
	<path fill="#FFFFFF" d="M276.771,72.614c0.721,1.174,1.428,2.362,2.106,3.55L76.164,278.877c-1.188-0.679-2.376-1.386-3.55-2.107
		L276.771,72.614z"/>
	<path fill="#FFFFFF" d="M272.308,65.763c0.778,1.117,1.542,2.248,2.271,3.387L69.149,274.578c-1.139-0.729-2.27-1.492-3.387-2.271
		L272.308,65.763z"/>
	<path fill="#FFFFFF" d="M267.535,59.222c0.827,1.067,1.634,2.142,2.426,3.231L62.453,269.961c-1.089-0.792-2.164-1.599-3.231-2.426
		L267.535,59.222z"/>
	<path fill="#FFFFFF" d="M262.656,53.253c0.807,0.934,1.591,1.874,2.369,2.821L56.075,265.025c-0.947-0.778-1.887-1.563-2.821-2.369
		L262.656,53.253z"/>
	<path fill="#FFFFFF" d="M257.269,47.328c0.933,0.962,1.838,1.938,2.736,2.92L50.249,260.005c-0.983-0.898-1.959-1.804-2.92-2.736
		L257.269,47.328z"/>
	<path fill="#FFFFFF" d="M254.468,44.471L44.471,254.468c-0.94-0.954-1.867-1.909-2.772-2.885L251.583,41.699
		C252.559,42.604,253.514,43.531,254.468,44.471z"/>
</g>
<g>
	<polygon fill="#44B3E5" points="207.591,219.887 168.082,219.887 137.615,167.089 107.056,114.198 126.856,80.114 167.179,150.001 
			"/>
	<polygon fill="#44B3E5" points="253.973,219.887 214.554,219.887 183.995,167.089 153.525,114.198 173.236,80.114 213.56,150.001 	
		"/>
	<polygon fill="#44B3E5" points="161.12,219.616 121.703,219.616 99.191,180.649 118.899,146.475 120.798,149.73 	"/>
	<polygon fill="#2E76BC" points="123.33,154.159 98.829,196.562 85.448,219.887 46.03,219.887 63.298,190.052 103.168,120.889 
		103.62,119.984 103.801,120.165 103.801,120.165 104.796,121.883 105.338,122.877 105.338,122.877 	"/>
</g>
</svg>
